# xmcd CD database file
#
# Track frame offsets:
#	150
#	18162
#	44407
#	69230
#	89037
#	114562
#	148042
#	166597
#	193870
#	213347
#	241222
#
# Disc length: 3491 seconds
#
# Revision: 6
# Processed by: cddbd v1.5.2PL0 Copyright (c) Steve Scherf et al.
# Submitted via: CDex 1.50
#
DISCID=940da10b
DTITLE=Robben Ford - Su p ern a tu ral
DYEAR=1999
DGENRE=Blues
TTITLE0=Let Me In
TTITLE1=Supernatural
TTITLE2=Nothing To Nobody
TTITLE3=Water For The Wicked
TTITLE4=Don't Lose Your Faith In Me
TTITLE5=Hey, Brother
TTITLE6=Deaf, Dumb, And Blind (for O. T.)
TTITLE7=If
TTITLE8=When I Cry Today
TTITLE9=You Got Me Knockin'
TTITLE10=Lovin' Cup
EXTD=YEAR: 1999
EXTT0=
EXTT1=
EXTT2=
EXTT3=
EXTT4=
EXTT5=
EXTT6=
EXTT7=
EXTT8=
EXTT9=
EXTT10=
PLAYORDER=
